<svg width="295" height="180" viewBox="0 0 295 180" fill="none" xmlns="http://www.w3.org/2000/svg">
<g clip-path="url(#clip0)">
<path d="M294.4 0L166.3 227H-4V0H294.4Z" fill="#1F434B"/>
<path d="M9.488 168.764C8.816 168.764 8.216 168.608 7.688 168.296C7.16 167.984 6.744 167.564 6.44 167.036C6.144 166.5 5.996 165.912 5.996 165.272C5.996 164.632 6.144 164.048 6.44 163.52C6.744 162.984 7.16 162.56 7.688 162.248C8.216 161.936 8.816 161.78 9.488 161.78C10.16 161.78 10.76 161.936 11.288 162.248C11.816 162.56 12.228 162.984 12.524 163.52C12.828 164.048 12.98 164.632 12.98 165.272C12.98 165.912 12.828 166.5 12.524 167.036C12.228 167.564 11.816 167.984 11.288 168.296C10.76 168.608 10.16 168.764 9.488 168.764ZM9.488 167.972C10.016 167.972 10.476 167.852 10.868 167.612C11.26 167.364 11.56 167.036 11.768 166.628C11.976 166.212 12.08 165.76 12.08 165.272C12.08 164.784 11.976 164.336 11.768 163.928C11.56 163.512 11.26 163.184 10.868 162.944C10.476 162.696 10.016 162.572 9.488 162.572C8.96 162.572 8.5 162.696 8.108 162.944C7.716 163.184 7.416 163.512 7.208 163.928C7 164.336 6.896 164.784 6.896 165.272C6.896 165.76 7 166.212 7.208 166.628C7.416 167.036 7.716 167.364 8.108 167.612C8.5 167.852 8.96 167.972 9.488 167.972ZM9.404 167.288C8.9 167.288 8.488 167.124 8.168 166.796C7.848 166.46 7.688 166.008 7.688 165.44C7.688 165.008 7.78 164.616 7.964 164.264C8.156 163.912 8.408 163.636 8.72 163.436C9.04 163.236 9.392 163.136 9.776 163.136C10.152 163.136 10.436 163.228 10.628 163.412C10.82 163.588 10.916 163.824 10.916 164.12C10.916 164.56 10.74 164.78 10.388 164.78C10.292 164.78 10.216 164.76 10.16 164.72C10.112 164.672 10.088 164.608 10.088 164.528C10.088 164.496 10.096 164.432 10.112 164.336C10.136 164.24 10.148 164.172 10.148 164.132C10.148 164.036 10.116 163.96 10.052 163.904C9.988 163.84 9.896 163.808 9.776 163.808C9.424 163.808 9.128 163.956 8.888 164.252C8.648 164.548 8.528 164.916 8.528 165.356C8.528 165.724 8.612 166.02 8.78 166.244C8.956 166.468 9.2 166.58 9.512 166.58C9.72 166.58 9.912 166.54 10.088 166.46C10.264 166.38 10.444 166.256 10.628 166.088C10.692 166.04 10.74 166.016 10.772 166.016C10.828 166.016 10.868 166.044 10.892 166.1C10.924 166.156 10.94 166.224 10.94 166.304C10.94 166.44 10.896 166.564 10.808 166.676C10.448 167.084 9.98 167.288 9.404 167.288ZM21.8733 162.896C22.0813 162.896 22.2573 162.948 22.4013 163.052C22.5453 163.148 22.6173 163.268 22.6173 163.412C22.6173 163.668 22.5373 163.876 22.3773 164.036C22.2173 164.188 21.9893 164.264 21.6933 164.264C21.2293 164.264 20.8773 164.268 20.6373 164.276C20.6213 164.372 20.5493 164.804 20.4213 165.572C20.2773 166.428 20.1893 166.952 20.1573 167.144L19.9053 168.716C19.7293 169.892 19.5893 170.876 19.4853 171.668C19.6533 171.66 19.8813 171.656 20.1693 171.656C20.5933 171.656 20.8813 171.712 21.0333 171.824C21.1853 171.936 21.2613 172.104 21.2613 172.328C21.2613 172.536 21.1773 172.712 21.0093 172.856C20.8493 173 20.6213 173.072 20.3253 173.072C20.1253 173.072 19.8093 173.064 19.3773 173.048C18.9773 173.032 18.7133 173.024 18.5853 173.024C18.0813 173.024 17.5293 173.068 16.9293 173.156C16.6653 173.196 16.4773 173.216 16.3653 173.216C16.1893 173.216 16.0413 173.168 15.9213 173.072C15.8013 172.976 15.7413 172.836 15.7413 172.652C15.7413 172.364 15.8693 172.14 16.1253 171.98C16.3813 171.82 16.7413 171.736 17.2053 171.728L17.7693 171.716L17.8053 171.452C17.9973 170.172 18.1373 169.268 18.2253 168.74L18.4893 167.168C18.6493 166.24 18.7933 165.284 18.9213 164.3L17.9133 164.312C17.6253 164.312 17.4253 164.268 17.3133 164.18C17.2093 164.084 17.1573 163.952 17.1573 163.784C17.1573 163.24 17.5493 162.948 18.3333 162.908C18.7013 162.892 19.1493 162.884 19.6773 162.884L21.8733 162.896ZM27.6587 166.016C27.7867 166.016 27.8907 166.076 27.9707 166.196C28.0587 166.308 28.1027 166.48 28.1027 166.712C28.1027 166.928 28.0587 167.092 27.9707 167.204C27.8827 167.308 27.7707 167.404 27.6347 167.492C27.5067 167.58 27.4147 167.644 27.3587 167.684C26.5107 168.268 25.9187 168.936 25.5827 169.688C25.2547 170.44 25.0547 171.244 24.9827 172.1C24.9507 172.436 24.8587 172.68 24.7067 172.832C24.5627 172.984 24.3787 173.06 24.1547 173.06C23.9307 173.06 23.7427 172.984 23.5907 172.832C23.4387 172.672 23.3627 172.396 23.3627 172.004C23.3627 171.548 23.4467 171.048 23.6147 170.504C23.7907 169.952 24.0667 169.404 24.4427 168.86C24.8267 168.316 25.3107 167.832 25.8947 167.408L22.9427 167.456C22.7747 167.456 22.6467 167.4 22.5587 167.288C22.4707 167.176 22.4267 167.036 22.4267 166.868C22.4267 166.66 22.4907 166.476 22.6187 166.316C22.7547 166.148 22.9347 166.064 23.1587 166.064C23.5507 166.064 24.1227 166.092 24.8747 166.148C25.0267 166.156 25.3067 166.172 25.7147 166.196C26.1227 166.22 26.4427 166.232 26.6747 166.232C26.7787 166.232 26.9307 166.196 27.1307 166.124C27.1707 166.116 27.2467 166.096 27.3587 166.064C27.4787 166.032 27.5787 166.016 27.6587 166.016ZM37.0436 163.796C37.0436 164.036 36.9916 164.216 36.8876 164.336C36.7916 164.456 36.6316 164.516 36.4076 164.516C36.3916 164.684 36.3556 164.976 36.2996 165.392C36.2196 165.952 36.1756 166.264 36.1676 166.328C35.4556 171.632 33.9716 174.284 31.7156 174.284C31.0516 174.284 30.5316 174.096 30.1556 173.72C29.7876 173.344 29.6036 172.872 29.6036 172.304C29.6036 171.288 30.0356 170.392 30.8996 169.616C31.7636 168.832 32.8996 168.184 34.3076 167.672C34.3956 167.104 34.4636 166.596 34.5116 166.148L34.7276 164.336C34.2476 164.288 33.7996 164.264 33.3836 164.264C32.2716 164.264 31.4516 164.372 30.9236 164.588C30.3956 164.804 30.1316 165.156 30.1316 165.644C30.1316 165.884 30.2116 166.144 30.3716 166.424C30.4196 166.504 30.4436 166.588 30.4436 166.676C30.4436 166.844 30.3556 166.996 30.1796 167.132C30.0116 167.26 29.8276 167.324 29.6276 167.324C29.3716 167.324 29.1756 167.216 29.0396 167C28.8156 166.632 28.7036 166.204 28.7036 165.716C28.7036 163.796 30.3836 162.836 33.7436 162.836C34.7196 162.836 35.5916 162.932 36.3596 163.124C36.8156 163.236 37.0436 163.46 37.0436 163.796ZM31.8716 173C32.2636 173 32.6556 172.704 33.0476 172.112C33.4396 171.52 33.7836 170.484 34.0796 169.004C32.1276 169.86 31.1516 170.908 31.1516 172.148C31.1516 172.42 31.2156 172.632 31.3436 172.784C31.4716 172.928 31.6476 173 31.8716 173ZM43.6413 173.06C43.1773 173.06 42.6533 173.02 42.0693 172.94C41.7493 172.9 41.5293 172.816 41.4093 172.688C41.2893 172.56 41.2373 172.352 41.2533 172.064C41.3093 171.272 41.4413 170.296 41.6493 169.136C41.8573 167.968 42.1093 166.844 42.4053 165.764C42.4613 165.564 42.5733 165.424 42.7413 165.344C42.9093 165.264 43.1293 165.224 43.4013 165.224C43.8893 165.224 44.1333 165.36 44.1333 165.632C44.1333 165.744 44.1093 165.872 44.0613 166.016C43.8533 166.656 43.6453 167.516 43.4373 168.596C43.2293 169.668 43.0813 170.692 42.9933 171.668C43.2333 171.692 43.5053 171.704 43.8093 171.704C45.2093 171.704 46.2533 171.28 46.9413 170.432C47.6373 169.584 47.9853 168.452 47.9853 167.036C47.9853 166.084 47.7133 165.348 47.1693 164.828C46.6253 164.308 45.8573 164.048 44.8653 164.048C44.2253 164.048 43.5893 164.148 42.9573 164.348C42.3333 164.548 41.7693 164.812 41.2653 165.14C41.1613 165.212 41.0493 165.248 40.9293 165.248C40.7933 165.248 40.6853 165.192 40.6053 165.08C40.5253 164.96 40.4853 164.816 40.4853 164.648C40.4853 164.456 40.5173 164.3 40.5813 164.18C40.6453 164.052 40.7533 163.936 40.9053 163.832C41.4573 163.456 42.1053 163.172 42.8493 162.98C43.5933 162.78 44.3093 162.68 44.9973 162.68C45.9733 162.68 46.8173 162.852 47.5293 163.196C48.2413 163.532 48.7893 164.028 49.1733 164.684C49.5573 165.34 49.7493 166.132 49.7493 167.06C49.7493 168.268 49.5093 169.324 49.0293 170.228C48.5493 171.124 47.8493 171.82 46.9293 172.316C46.0093 172.812 44.9133 173.06 43.6413 173.06ZM55.9046 170.324C56.0086 170.324 56.0886 170.372 56.1446 170.468C56.2086 170.564 56.2406 170.696 56.2406 170.864C56.2406 171.184 56.1646 171.432 56.0126 171.608C55.7166 171.968 55.2966 172.3 54.7526 172.604C54.2166 172.908 53.6406 173.06 53.0246 173.06C52.1846 173.06 51.5326 172.832 51.0686 172.376C50.6046 171.92 50.3726 171.296 50.3726 170.504C50.3726 169.952 50.4886 169.44 50.7206 168.968C50.9526 168.488 51.2726 168.108 51.6806 167.828C52.0966 167.548 52.5646 167.408 53.0846 167.408C53.5486 167.408 53.9206 167.548 54.2006 167.828C54.4806 168.1 54.6206 168.472 54.6206 168.944C54.6206 169.496 54.4206 169.972 54.0206 170.372C53.6286 170.764 52.9606 171.076 52.0166 171.308C52.2166 171.676 52.5966 171.86 53.1566 171.86C53.5166 171.86 53.9246 171.736 54.3806 171.488C54.8446 171.232 55.2446 170.9 55.5806 170.492C55.6766 170.38 55.7846 170.324 55.9046 170.324ZM52.8806 168.584C52.5846 168.584 52.3326 168.756 52.1246 169.1C51.9246 169.444 51.8246 169.86 51.8246 170.348V170.372C52.2966 170.26 52.6686 170.092 52.9406 169.868C53.2126 169.644 53.3486 169.384 53.3486 169.088C53.3486 168.936 53.3046 168.816 53.2166 168.728C53.1366 168.632 53.0246 168.584 52.8806 168.584ZM61.2621 169.352C61.2861 169.344 61.3261 169.34 61.3821 169.34C61.5021 169.34 61.5941 169.38 61.6581 169.46C61.7221 169.54 61.7541 169.648 61.7541 169.784C61.7541 170.032 61.7061 170.228 61.6101 170.372C61.5141 170.508 61.3701 170.608 61.1781 170.672C60.8101 170.792 60.4181 170.852 60.0021 170.852C59.6501 170.852 59.3181 170.804 59.0061 170.708C58.7741 171.084 58.5181 171.472 58.2381 171.872C57.9181 172.328 57.6421 172.64 57.4101 172.808C57.1781 172.976 56.9141 173.06 56.6181 173.06C56.2901 173.06 56.0301 172.932 55.8381 172.676C55.6541 172.42 55.5381 172.016 55.4901 171.464C55.3941 170.344 55.3461 169.364 55.3461 168.524V168.104C55.3541 167.84 55.4261 167.656 55.5621 167.552C55.6981 167.448 55.9021 167.396 56.1741 167.396C56.3821 167.396 56.5341 167.444 56.6301 167.54C56.7341 167.628 56.7861 167.78 56.7861 167.996C56.7861 168.916 56.8421 170.112 56.9541 171.584C57.4341 170.872 57.7941 170.304 58.0341 169.88C57.9141 169.648 57.8541 169.372 57.8541 169.052C57.8541 168.78 57.9141 168.516 58.0341 168.26C58.1541 168.004 58.3181 167.796 58.5261 167.636C58.7341 167.476 58.9701 167.396 59.2341 167.396C59.4661 167.396 59.6541 167.48 59.7981 167.648C59.9421 167.808 60.0141 168.044 60.0141 168.356C60.0141 168.716 59.9181 169.128 59.7261 169.592C60.0301 169.576 60.4341 169.516 60.9381 169.412L61.2621 169.352ZM66.0647 170.324C66.1687 170.324 66.2487 170.372 66.3047 170.468C66.3687 170.564 66.4007 170.696 66.4007 170.864C66.4007 171.184 66.3247 171.432 66.1727 171.608C65.8767 171.968 65.4567 172.3 64.9127 172.604C64.3767 172.908 63.8007 173.06 63.1847 173.06C62.3447 173.06 61.6927 172.832 61.2287 172.376C60.7647 171.92 60.5327 171.296 60.5327 170.504C60.5327 169.952 60.6487 169.44 60.8807 168.968C61.1127 168.488 61.4327 168.108 61.8407 167.828C62.2567 167.548 62.7247 167.408 63.2447 167.408C63.7087 167.408 64.0807 167.548 64.3607 167.828C64.6407 168.1 64.7807 168.472 64.7807 168.944C64.7807 169.496 64.5807 169.972 64.1807 170.372C63.7887 170.764 63.1207 171.076 62.1767 171.308C62.3767 171.676 62.7567 171.86 63.3167 171.86C63.6767 171.86 64.0847 171.736 64.5407 171.488C65.0047 171.232 65.4047 170.9 65.7407 170.492C65.8367 170.38 65.9447 170.324 66.0647 170.324ZM63.0407 168.584C62.7447 168.584 62.4927 168.756 62.2847 169.1C62.0847 169.444 61.9847 169.86 61.9847 170.348V170.372C62.4567 170.26 62.8287 170.092 63.1007 169.868C63.3727 169.644 63.5087 169.384 63.5087 169.088C63.5087 168.936 63.4647 168.816 63.3767 168.728C63.2967 168.632 63.1847 168.584 63.0407 168.584ZM69.9717 170.324C70.0757 170.324 70.1557 170.372 70.2117 170.468C70.2757 170.564 70.3077 170.696 70.3077 170.864C70.3077 171.184 70.2317 171.432 70.0797 171.608C69.7357 172.032 69.3597 172.38 68.9517 172.652C68.5517 172.924 68.0957 173.06 67.5837 173.06C66.8797 173.06 66.3557 172.74 66.0117 172.1C65.6757 171.46 65.5077 170.632 65.5077 169.616C65.5077 168.64 65.6317 167.528 65.8797 166.28C66.1357 165.032 66.5077 163.96 66.9957 163.064C67.4917 162.168 68.0797 161.72 68.7597 161.72C69.1437 161.72 69.4437 161.9 69.6597 162.26C69.8837 162.612 69.9957 163.12 69.9957 163.784C69.9957 164.736 69.7317 165.84 69.2037 167.096C68.6757 168.352 67.9597 169.596 67.0557 170.828C67.1117 171.156 67.2037 171.392 67.3317 171.536C67.4597 171.672 67.6277 171.74 67.8357 171.74C68.1637 171.74 68.4517 171.648 68.6997 171.464C68.9477 171.272 69.2637 170.948 69.6477 170.492C69.7437 170.38 69.8517 170.324 69.9717 170.324ZM68.4957 162.908C68.3117 162.908 68.1037 163.24 67.8717 163.904C67.6397 164.568 67.4357 165.392 67.2597 166.376C67.0837 167.36 66.9877 168.304 66.9717 169.208C67.5397 168.272 67.9917 167.336 68.3277 166.4C68.6637 165.456 68.8317 164.596 68.8317 163.82C68.8317 163.212 68.7197 162.908 68.4957 162.908ZM75.4577 169.316C75.5617 169.316 75.6417 169.368 75.6977 169.472C75.7537 169.576 75.7817 169.708 75.7817 169.868C75.7817 170.252 75.6657 170.48 75.4337 170.552C74.9537 170.72 74.4257 170.816 73.8497 170.84C73.6977 171.512 73.3977 172.052 72.9497 172.46C72.5017 172.86 71.9937 173.06 71.4257 173.06C70.9457 173.06 70.5337 172.944 70.1897 172.712C69.8537 172.48 69.5977 172.172 69.4217 171.788C69.2457 171.404 69.1577 170.988 69.1577 170.54C69.1577 169.932 69.2737 169.392 69.5057 168.92C69.7377 168.44 70.0577 168.068 70.4657 167.804C70.8737 167.532 71.3257 167.396 71.8217 167.396C72.4297 167.396 72.9177 167.608 73.2857 168.032C73.6617 168.448 73.8817 168.964 73.9457 169.58C74.3217 169.556 74.7697 169.476 75.2897 169.34C75.3537 169.324 75.4097 169.316 75.4577 169.316ZM71.5217 171.788C71.7777 171.788 71.9977 171.684 72.1817 171.476C72.3737 171.268 72.5017 170.968 72.5657 170.576C72.3177 170.408 72.1257 170.188 71.9897 169.916C71.8617 169.644 71.7977 169.356 71.7977 169.052C71.7977 168.924 71.8097 168.796 71.8337 168.668H71.7737C71.4537 168.668 71.1857 168.824 70.9697 169.136C70.7617 169.44 70.6577 169.872 70.6577 170.432C70.6577 170.872 70.7417 171.208 70.9097 171.44C71.0857 171.672 71.2897 171.788 71.5217 171.788ZM81.1598 170.324C81.2638 170.324 81.3438 170.372 81.3998 170.468C81.4638 170.564 81.4958 170.696 81.4958 170.864C81.4958 171.184 81.4198 171.432 81.2678 171.608C80.9238 172.032 80.5518 172.38 80.1518 172.652C79.7598 172.924 79.3118 173.06 78.8078 173.06C78.3838 173.06 78.0398 172.908 77.7758 172.604C77.3198 172.9 76.8438 173.052 76.3478 173.06C76.2438 174.604 76.0078 175.892 75.6398 176.924C75.2718 177.964 74.7318 178.484 74.0198 178.484C73.5878 178.484 73.2678 178.328 73.0598 178.016C72.8518 177.704 72.7478 177.272 72.7478 176.72C72.7478 175.936 72.9278 175.02 73.2878 173.972C73.6478 172.932 74.2038 171.784 74.9558 170.528C74.9558 169.36 74.9478 168.548 74.9318 168.092C74.9238 167.86 75.0158 167.676 75.2078 167.54C75.3998 167.404 75.6398 167.336 75.9278 167.336C76.0958 167.336 76.2158 167.372 76.2878 167.444C76.3678 167.508 76.4118 167.64 76.4198 167.84C76.4198 168.04 76.4238 168.188 76.4318 168.284C76.6878 167.964 76.9398 167.736 77.1878 167.6C77.4358 167.456 77.6998 167.384 77.9798 167.384C78.4278 167.384 78.7918 167.564 79.0718 167.924C79.3598 168.284 79.5038 168.756 79.5038 169.34C79.5038 169.764 79.4358 170.176 79.2998 170.576C79.1638 170.976 78.9758 171.34 78.7358 171.668C78.9038 171.716 79.0438 171.74 79.1558 171.74C79.4198 171.74 79.6718 171.644 79.9118 171.452C80.1518 171.26 80.4598 170.94 80.8358 170.492C80.9318 170.38 81.0398 170.324 81.1598 170.324ZM76.4078 171.908C76.6958 171.844 76.9598 171.688 77.1998 171.44C77.4478 171.184 77.6438 170.872 77.7878 170.504C77.9318 170.128 78.0038 169.736 78.0038 169.328C78.0038 169.088 77.9558 168.908 77.8598 168.788C77.7638 168.66 77.6358 168.596 77.4758 168.596C77.1878 168.596 76.8398 168.9 76.4318 169.508C76.4238 169.86 76.4198 170.376 76.4198 171.056C76.4198 171.424 76.4158 171.708 76.4078 171.908ZM74.1158 177.308C74.3318 177.308 74.5118 176.836 74.6558 175.892C74.7998 174.956 74.8918 173.788 74.9318 172.388C74.5878 173.188 74.3158 173.952 74.1158 174.68C73.9158 175.408 73.8158 176.02 73.8158 176.516C73.8158 176.772 73.8478 176.968 73.9118 177.104C73.9678 177.24 74.0358 177.308 74.1158 177.308ZM81.3811 173.06C81.0771 173.06 80.8611 172.9 80.7331 172.58C80.6131 172.26 80.5531 171.748 80.5531 171.044C80.5531 170.004 80.7011 169.016 80.9971 168.08C81.0691 167.848 81.1851 167.68 81.3451 167.576C81.5131 167.464 81.7451 167.408 82.0411 167.408C82.2011 167.408 82.3131 167.428 82.3771 167.468C82.4411 167.508 82.4731 167.584 82.4731 167.696C82.4731 167.824 82.4131 168.112 82.2931 168.56C82.2131 168.88 82.1491 169.16 82.1011 169.4C82.0531 169.632 82.0131 169.924 81.9811 170.276C82.1971 169.652 82.4531 169.124 82.7491 168.692C83.0531 168.26 83.3611 167.94 83.6731 167.732C83.9931 167.516 84.2931 167.408 84.5731 167.408C84.8531 167.408 85.0491 167.472 85.1611 167.6C85.2811 167.728 85.3411 167.924 85.3411 168.188C85.3411 168.444 85.2651 168.908 85.1131 169.58C85.0491 169.868 85.0051 170.084 84.9811 170.228C85.3811 169.244 85.8251 168.528 86.3131 168.08C86.8011 167.632 87.2571 167.408 87.6811 167.408C88.2011 167.408 88.4611 167.668 88.4611 168.188C88.4611 168.5 88.3731 169.064 88.1971 169.88C88.0451 170.576 87.9691 171.036 87.9691 171.26C87.9691 171.58 88.0851 171.74 88.3171 171.74C88.4771 171.74 88.6651 171.644 88.8811 171.452C89.1051 171.252 89.4011 170.932 89.7691 170.492C89.8651 170.38 89.9731 170.324 90.0931 170.324C90.1971 170.324 90.2771 170.372 90.3331 170.468C90.3971 170.564 90.4291 170.696 90.4291 170.864C90.4291 171.184 90.3531 171.432 90.2011 171.608C89.8571 172.032 89.4851 172.38 89.0851 172.652C88.6931 172.924 88.2451 173.06 87.7411 173.06C87.3331 173.06 87.0251 172.944 86.8171 172.712C86.6091 172.472 86.5051 172.128 86.5051 171.68C86.5051 171.456 86.5611 171.056 86.6731 170.48C86.7771 169.976 86.8291 169.628 86.8291 169.436C86.8291 169.308 86.7851 169.244 86.6971 169.244C86.5931 169.244 86.4451 169.38 86.2531 169.652C86.0611 169.916 85.8691 170.268 85.6771 170.708C85.4851 171.148 85.3291 171.612 85.2091 172.1C85.1211 172.484 85.0171 172.74 84.8971 172.868C84.7851 172.996 84.6011 173.06 84.3451 173.06C84.0811 173.06 83.8811 172.936 83.7451 172.688C83.6171 172.432 83.5531 172.124 83.5531 171.764C83.5531 171.46 83.5931 171.02 83.6731 170.444C83.7371 169.932 83.7691 169.596 83.7691 169.436C83.7691 169.308 83.7251 169.244 83.6371 169.244C83.5171 169.244 83.3651 169.388 83.1811 169.676C82.9971 169.964 82.8171 170.332 82.6411 170.78C82.4731 171.228 82.3371 171.668 82.2331 172.1C82.1451 172.476 82.0411 172.732 81.9211 172.868C81.8091 172.996 81.6291 173.06 81.3811 173.06ZM94.8108 170.324C94.9148 170.324 94.9948 170.372 95.0508 170.468C95.1148 170.564 95.1468 170.696 95.1468 170.864C95.1468 171.184 95.0708 171.432 94.9188 171.608C94.6228 171.968 94.2028 172.3 93.6588 172.604C93.1228 172.908 92.5468 173.06 91.9308 173.06C91.0908 173.06 90.4388 172.832 89.9748 172.376C89.5108 171.92 89.2788 171.296 89.2788 170.504C89.2788 169.952 89.3948 169.44 89.6268 168.968C89.8588 168.488 90.1788 168.108 90.5868 167.828C91.0028 167.548 91.4708 167.408 91.9908 167.408C92.4548 167.408 92.8268 167.548 93.1068 167.828C93.3868 168.1 93.5268 168.472 93.5268 168.944C93.5268 169.496 93.3268 169.972 92.9268 170.372C92.5348 170.764 91.8668 171.076 90.9228 171.308C91.1228 171.676 91.5028 171.86 92.0628 171.86C92.4228 171.86 92.8308 171.736 93.2868 171.488C93.7508 171.232 94.1508 170.9 94.4868 170.492C94.5828 170.38 94.6908 170.324 94.8108 170.324ZM91.7868 168.584C91.4908 168.584 91.2388 168.756 91.0308 169.1C90.8308 169.444 90.7308 169.86 90.7308 170.348V170.372C91.2028 170.26 91.5748 170.092 91.8468 169.868C92.1188 169.644 92.2548 169.384 92.2548 169.088C92.2548 168.936 92.2108 168.816 92.1228 168.728C92.0428 168.632 91.9308 168.584 91.7868 168.584ZM95.0218 173.06C94.7178 173.06 94.5018 172.9 94.3738 172.58C94.2538 172.26 94.1938 171.748 94.1938 171.044C94.1938 170.004 94.3418 169.016 94.6378 168.08C94.7098 167.848 94.8258 167.68 94.9858 167.576C95.1538 167.464 95.3858 167.408 95.6818 167.408C95.8418 167.408 95.9538 167.428 96.0178 167.468C96.0818 167.508 96.1138 167.584 96.1138 167.696C96.1138 167.824 96.0538 168.112 95.9338 168.56C95.8538 168.88 95.7898 169.16 95.7418 169.4C95.6938 169.64 95.6538 169.936 95.6218 170.288C95.8858 169.6 96.1818 169.04 96.5098 168.608C96.8378 168.176 97.1578 167.868 97.4698 167.684C97.7898 167.5 98.0818 167.408 98.3458 167.408C98.8658 167.408 99.1258 167.668 99.1258 168.188C99.1258 168.5 99.0378 169.064 98.8618 169.88C98.7098 170.576 98.6338 171.036 98.6338 171.26C98.6338 171.58 98.7498 171.74 98.9818 171.74C99.1418 171.74 99.3298 171.644 99.5458 171.452C99.7698 171.252 100.066 170.932 100.434 170.492C100.53 170.38 100.638 170.324 100.758 170.324C100.862 170.324 100.942 170.372 100.998 170.468C101.062 170.564 101.094 170.696 101.094 170.864C101.094 171.184 101.018 171.432 100.866 171.608C100.522 172.032 100.15 172.38 99.7498 172.652C99.3578 172.924 98.9098 173.06 98.4058 173.06C97.9978 173.06 97.6898 172.944 97.4818 172.712C97.2738 172.472 97.1698 172.128 97.1698 171.68C97.1698 171.456 97.2258 171.056 97.3378 170.48C97.4418 169.976 97.4938 169.628 97.4938 169.436C97.4938 169.308 97.4498 169.244 97.3618 169.244C97.2578 169.244 97.1098 169.38 96.9178 169.652C96.7338 169.916 96.5418 170.268 96.3418 170.708C96.1498 171.148 95.9938 171.612 95.8738 172.1C95.7858 172.476 95.6818 172.732 95.5618 172.868C95.4498 172.996 95.2698 173.06 95.0218 173.06ZM102.103 168.548C102.087 168.948 102.079 169.26 102.079 169.484C102.079 170.06 102.107 170.512 102.163 170.84C102.227 171.16 102.327 171.392 102.463 171.536C102.607 171.672 102.803 171.74 103.051 171.74C103.179 171.74 103.331 171.7 103.507 171.62C103.683 171.54 103.843 171.436 103.987 171.308C104.075 171.228 104.163 171.188 104.251 171.188C104.347 171.188 104.423 171.244 104.479 171.356C104.543 171.46 104.575 171.588 104.575 171.74C104.575 171.892 104.543 172.04 104.479 172.184C104.423 172.328 104.335 172.448 104.215 172.544C103.799 172.888 103.327 173.06 102.799 173.06C102.039 173.06 101.483 172.744 101.131 172.112C100.779 171.472 100.603 170.64 100.603 169.616C100.603 169.264 100.615 168.908 100.639 168.548H100.171C99.9309 168.548 99.7669 168.504 99.6789 168.416C99.5989 168.328 99.5589 168.188 99.5589 167.996C99.5589 167.548 99.7389 167.324 100.099 167.324H100.783C100.919 166.444 101.127 165.64 101.407 164.912C101.687 164.184 102.023 163.604 102.415 163.172C102.815 162.74 103.243 162.524 103.699 162.524C104.035 162.524 104.299 162.672 104.491 162.968C104.683 163.264 104.779 163.636 104.779 164.084C104.779 165.324 104.259 166.404 103.219 167.324H104.563C104.691 167.324 104.783 167.352 104.839 167.408C104.895 167.464 104.923 167.568 104.923 167.72C104.923 168.272 104.471 168.548 103.567 168.548H102.103ZM103.375 163.676C103.255 163.676 103.119 163.828 102.967 164.132C102.823 164.428 102.683 164.844 102.547 165.38C102.419 165.908 102.311 166.496 102.223 167.144C102.695 166.736 103.047 166.28 103.279 165.776C103.519 165.264 103.639 164.8 103.639 164.384C103.639 163.912 103.551 163.676 103.375 163.676ZM113.392 171.656C113.56 171.656 113.688 171.712 113.776 171.824C113.864 171.936 113.908 172.076 113.908 172.244C113.908 172.452 113.84 172.64 113.704 172.808C113.576 172.968 113.4 173.048 113.176 173.048C112.792 173.048 112.22 173.02 111.46 172.964C111.308 172.956 111.028 172.94 110.62 172.916C110.212 172.892 109.892 172.88 109.66 172.88C109.556 172.88 109.404 172.916 109.204 172.988C109.164 172.996 109.084 173.016 108.964 173.048C108.852 173.08 108.756 173.096 108.676 173.096C108.548 173.096 108.44 173.04 108.352 172.928C108.272 172.808 108.232 172.632 108.232 172.4C108.232 172.144 108.292 171.948 108.412 171.812C108.532 171.668 108.72 171.54 108.976 171.428C109.52 171.188 110.032 170.884 110.512 170.516C111 170.14 111.388 169.736 111.676 169.304C111.972 168.872 112.12 168.46 112.12 168.068C112.12 167.756 112.048 167.528 111.904 167.384C111.768 167.232 111.548 167.156 111.244 167.156C110.892 167.156 110.608 167.252 110.392 167.444C110.184 167.636 110.08 167.904 110.08 168.248C110.08 168.72 109.844 168.956 109.372 168.956C109.148 168.956 108.972 168.892 108.844 168.764C108.724 168.636 108.664 168.452 108.664 168.212C108.664 167.812 108.768 167.444 108.976 167.108C109.184 166.772 109.496 166.504 109.912 166.304C110.328 166.096 110.836 165.992 111.436 165.992C112.156 165.992 112.72 166.172 113.128 166.532C113.536 166.892 113.74 167.392 113.74 168.032C113.74 168.64 113.472 169.276 112.936 169.94C112.408 170.604 111.644 171.192 110.644 171.704L113.392 171.656ZM117.467 173.06C116.683 173.06 116.075 172.804 115.643 172.292C115.219 171.78 115.007 171.048 115.007 170.096C115.007 169.288 115.131 168.576 115.379 167.96C115.635 167.336 115.987 166.852 116.435 166.508C116.891 166.164 117.419 165.992 118.019 165.992C118.803 165.992 119.407 166.248 119.831 166.76C120.263 167.272 120.479 168.004 120.479 168.956C120.479 169.764 120.351 170.48 120.095 171.104C119.847 171.72 119.495 172.2 119.039 172.544C118.591 172.888 118.067 173.06 117.467 173.06ZM117.587 171.716C118.019 171.716 118.359 171.476 118.607 170.996C118.855 170.516 118.979 169.864 118.979 169.04C118.979 168.488 118.887 168.068 118.703 167.78C118.519 167.484 118.251 167.336 117.899 167.336C117.467 167.336 117.127 167.58 116.879 168.068C116.631 168.548 116.507 169.2 116.507 170.024C116.507 170.576 116.595 170.996 116.771 171.284C116.955 171.572 117.227 171.716 117.587 171.716ZM126.622 171.656C126.79 171.656 126.918 171.712 127.006 171.824C127.094 171.936 127.138 172.076 127.138 172.244C127.138 172.452 127.07 172.64 126.934 172.808C126.806 172.968 126.63 173.048 126.406 173.048C126.022 173.048 125.45 173.02 124.69 172.964C124.538 172.956 124.258 172.94 123.85 172.916C123.442 172.892 123.122 172.88 122.89 172.88C122.786 172.88 122.634 172.916 122.434 172.988C122.394 172.996 122.314 173.016 122.194 173.048C122.082 173.08 121.986 173.096 121.906 173.096C121.778 173.096 121.67 173.04 121.582 172.928C121.502 172.808 121.462 172.632 121.462 172.4C121.462 172.144 121.522 171.948 121.642 171.812C121.762 171.668 121.95 171.54 122.206 171.428C122.75 171.188 123.262 170.884 123.742 170.516C124.23 170.14 124.618 169.736 124.906 169.304C125.202 168.872 125.35 168.46 125.35 168.068C125.35 167.756 125.278 167.528 125.134 167.384C124.998 167.232 124.778 167.156 124.474 167.156C124.122 167.156 123.838 167.252 123.622 167.444C123.414 167.636 123.31 167.904 123.31 168.248C123.31 168.72 123.074 168.956 122.602 168.956C122.378 168.956 122.202 168.892 122.074 168.764C121.954 168.636 121.894 168.452 121.894 168.212C121.894 167.812 121.998 167.444 122.206 167.108C122.414 166.772 122.726 166.504 123.142 166.304C123.558 166.096 124.066 165.992 124.666 165.992C125.386 165.992 125.95 166.172 126.358 166.532C126.766 166.892 126.97 167.392 126.97 168.032C126.97 168.64 126.702 169.276 126.166 169.94C125.638 170.604 124.874 171.192 123.874 171.704L126.622 171.656ZM129.977 173.06C129.777 173.06 129.601 173 129.449 172.88C129.297 172.76 129.221 172.572 129.221 172.316L129.233 172.184C129.321 171.36 129.425 170.504 129.545 169.616C129.673 168.72 129.781 168.032 129.869 167.552L128.933 167.816L128.789 167.84C128.637 167.84 128.517 167.78 128.429 167.66C128.341 167.54 128.297 167.404 128.297 167.252L128.309 167.144C128.325 166.992 128.373 166.868 128.453 166.772C128.533 166.676 128.685 166.58 128.909 166.484C129.141 166.388 129.485 166.284 129.941 166.172L130.445 166.052C130.629 166.012 130.781 165.992 130.901 165.992C131.133 165.992 131.305 166.052 131.417 166.172C131.537 166.292 131.597 166.46 131.597 166.676C131.597 166.772 131.585 166.876 131.561 166.988C131.433 167.612 131.189 169.388 130.829 172.316C130.765 172.812 130.481 173.06 129.977 173.06Z" fill="white"/>
</g>
<defs>
<clipPath id="clip0">
<rect width="294.4" height="180" fill="white"/>
</clipPath>
</defs>
</svg>
