<svg width="495" height="139" viewBox="0 0 495 139" fill="none" xmlns="http://www.w3.org/2000/svg">
<g clip-path="url(#clip0)">
<rect width="495" height="139" fill="black"/>
<path d="M456 -1L446.21 16.24L437.702 31.2L376.48 139H-1V-1H456Z" fill="#1F434B"/>
<path d="M68.92 94.3C67.44 94.3 66.38 93.98 65.74 93.34C65.1 92.66 64.78 91.4 64.78 89.56C64.78 88.32 64.9 86.74 65.14 84.82C65.42 82.86 65.86 80.18 66.46 76.78C67.5 70.5 68.32 65.06 68.92 60.46C69.28 57.58 69.46 55.18 69.46 53.26C69.46 51.46 68.8 50.56 67.48 50.56C66.44 50.56 65.18 51.1 63.7 52.18C62.26 53.22 60.66 54.9 58.9 57.22C58.34 57.98 57.72 58.36 57.04 58.36C56.48 58.36 55.98 58.1 55.54 57.58C55.14 57.02 54.94 56.4 54.94 55.72C54.94 55.08 55.06 54.44 55.3 53.8C55.58 53.12 56.02 52.36 56.62 51.52C58.54 48.84 60.68 46.78 63.04 45.34C65.4 43.86 67.76 43.12 70.12 43.12C72.32 43.12 74 43.82 75.16 45.22C76.36 46.62 76.96 48.66 76.96 51.34C76.96 52.42 76.86 53.7 76.66 55.18C76.46 56.62 76.28 57.8 76.12 58.72C75.96 59.64 75.84 60.28 75.76 60.64C78.04 54.12 80.6 49.58 83.44 47.02C86.28 44.42 89.4 43.12 92.8 43.12C95.4 43.12 97.44 44.04 98.92 45.88C100.44 47.72 101.2 50.32 101.2 53.68C101.2 55 101.02 56.64 100.66 58.6C102.66 53.08 105 49.12 107.68 46.72C110.36 44.32 113.44 43.12 116.92 43.12C119.72 43.12 121.86 44.02 123.34 45.82C124.86 47.62 125.62 50.14 125.62 53.38C125.62 55.14 125.36 57.28 124.84 59.8L121.18 76.96C120.78 78.96 120.58 80.68 120.58 82.12C120.58 83.8 120.96 85.06 121.72 85.9C122.52 86.74 123.62 87.16 125.02 87.16C126.34 87.16 127.62 86.72 128.86 85.84C130.14 84.96 131.64 83.5 133.36 81.46C133.84 80.9 134.38 80.62 134.98 80.62C135.5 80.62 135.9 80.86 136.18 81.34C136.5 81.82 136.66 82.48 136.66 83.32C136.66 84.88 136.28 86.12 135.52 87.04C133.44 89.56 131.38 91.4 129.34 92.56C127.3 93.72 125.16 94.3 122.92 94.3C119.52 94.3 116.86 93.3 114.94 91.3C113.02 89.26 112.06 86.54 112.06 83.14C112.06 80.78 112.54 77.36 113.5 72.88L115.9 61.9C115.98 61.54 116.12 60.9 116.32 59.98C116.52 59.06 116.68 58.2 116.8 57.4C116.92 56.56 116.98 55.74 116.98 54.94C116.98 53.54 116.7 52.5 116.14 51.82C115.62 51.1 114.86 50.74 113.86 50.74C111.98 50.74 110 51.96 107.92 54.4C105.88 56.8 103.92 60.8 102.04 66.4C100.2 72 98.7 79.28 97.54 88.24C97.26 90.64 96.76 92.26 96.04 93.1C95.36 93.9 94.24 94.3 92.68 94.3C91.32 94.3 90.32 93.98 89.68 93.34C89.08 92.7 88.78 91.5 88.78 89.74C88.78 88.1 89 85.96 89.44 83.32C89.88 80.64 90.44 77.5 91.12 73.9C92.96 64.22 93.88 57.98 93.88 55.18C93.88 53.66 93.58 52.54 92.98 51.82C92.42 51.1 91.56 50.74 90.4 50.74C88.44 50.74 86.42 51.86 84.34 54.1C82.26 56.3 80.22 60.24 78.22 65.92C76.26 71.56 74.62 79.2 73.3 88.84C73.02 90.88 72.6 92.3 72.04 93.1C71.52 93.9 70.48 94.3 68.92 94.3ZM162.425 75.58C162.945 75.58 163.345 75.84 163.625 76.36C163.905 76.88 164.045 77.54 164.045 78.34C164.045 80.26 163.465 81.4 162.305 81.76C159.905 82.6 157.265 83.08 154.385 83.2C153.625 86.56 152.125 89.26 149.885 91.3C147.645 93.3 145.105 94.3 142.265 94.3C139.865 94.3 137.805 93.72 136.085 92.56C134.405 91.4 133.125 89.86 132.245 87.94C131.365 86.02 130.925 83.94 130.925 81.7C130.925 78.66 131.505 75.96 132.665 73.6C133.825 71.2 135.425 69.34 137.465 68.02C139.505 66.66 141.765 65.98 144.245 65.98C147.285 65.98 149.725 67.04 151.565 69.16C153.445 71.24 154.545 73.82 154.865 76.9C156.745 76.78 158.985 76.38 161.585 75.7C161.905 75.62 162.185 75.58 162.425 75.58ZM142.745 87.94C144.025 87.94 145.125 87.42 146.045 86.38C147.005 85.34 147.645 83.84 147.965 81.88C146.725 81.04 145.765 79.94 145.085 78.58C144.445 77.22 144.125 75.78 144.125 74.26C144.125 73.62 144.185 72.98 144.305 72.34H144.005C142.405 72.34 141.065 73.12 139.985 74.68C138.945 76.2 138.425 78.36 138.425 81.16C138.425 83.36 138.845 85.04 139.685 86.2C140.565 87.36 141.585 87.94 142.745 87.94ZM189.496 75.58C190.016 75.58 190.416 75.84 190.696 76.36C190.976 76.88 191.116 77.54 191.116 78.34C191.116 80.26 190.536 81.4 189.376 81.76C186.976 82.6 184.336 83.08 181.456 83.2C180.696 86.56 179.196 89.26 176.956 91.3C174.716 93.3 172.176 94.3 169.336 94.3C166.936 94.3 164.876 93.72 163.156 92.56C161.476 91.4 160.196 89.86 159.316 87.94C158.436 86.02 157.996 83.94 157.996 81.7C157.996 78.66 158.576 75.96 159.736 73.6C160.896 71.2 162.496 69.34 164.536 68.02C166.576 66.66 168.836 65.98 171.316 65.98C174.356 65.98 176.796 67.04 178.636 69.16C180.516 71.24 181.616 73.82 181.936 76.9C183.816 76.78 186.056 76.38 188.656 75.7C188.976 75.62 189.256 75.58 189.496 75.58ZM169.816 87.94C171.096 87.94 172.196 87.42 173.116 86.38C174.076 85.34 174.716 83.84 175.036 81.88C173.796 81.04 172.836 79.94 172.156 78.58C171.516 77.22 171.196 75.78 171.196 74.26C171.196 73.62 171.256 72.98 171.376 72.34H171.076C169.476 72.34 168.136 73.12 167.056 74.68C166.016 76.2 165.496 78.36 165.496 81.16C165.496 83.36 165.916 85.04 166.756 86.2C167.636 87.36 168.656 87.94 169.816 87.94ZM220.046 80.62C220.566 80.62 220.966 80.86 221.246 81.34C221.566 81.82 221.726 82.48 221.726 83.32C221.726 84.92 221.346 86.16 220.586 87.04C218.946 89.04 217.146 90.76 215.186 92.2C213.226 93.6 211.286 94.3 209.366 94.3C206.326 94.3 204.006 92.52 202.406 88.96C200.726 91.08 199.246 92.5 197.966 93.22C196.726 93.94 195.266 94.3 193.586 94.3C191.146 94.3 189.126 93.4 187.526 91.6C185.966 89.76 185.186 87.38 185.186 84.46C185.186 81.26 185.866 78.3 187.226 75.58C188.586 72.82 190.446 70.58 192.806 68.86C195.206 67.1 197.886 66.06 200.846 65.74C201.606 57.98 203.046 51.36 205.166 45.88C207.326 40.36 210.146 37.6 213.626 37.6C215.346 37.6 216.766 38.38 217.886 39.94C219.046 41.5 219.626 43.86 219.626 47.02C219.626 51.5 218.526 56.74 216.326 62.74C214.126 68.74 211.186 74.9 207.506 81.22C207.666 83.54 208.006 85.2 208.526 86.2C209.086 87.2 209.786 87.7 210.626 87.7C211.706 87.7 212.806 87.22 213.926 86.26C215.046 85.3 216.546 83.7 218.426 81.46C218.906 80.9 219.446 80.62 220.046 80.62ZM212.966 43.48C212.206 43.48 211.446 44.84 210.686 47.56C209.926 50.24 209.266 53.76 208.706 58.12C208.186 62.48 207.806 67.04 207.566 71.8C212.046 62.04 214.286 54.2 214.286 48.28C214.286 46.76 214.146 45.58 213.866 44.74C213.626 43.9 213.326 43.48 212.966 43.48ZM195.686 88.24C196.446 88.24 197.206 87.94 197.966 87.34C198.726 86.7 199.686 85.54 200.846 83.86C200.446 81.7 200.246 79.28 200.246 76.6C200.246 75.64 200.286 74.08 200.366 71.92C198.166 72.6 196.326 74.08 194.846 76.36C193.406 78.6 192.686 81.1 192.686 83.86C192.686 86.78 193.686 88.24 195.686 88.24ZM224.705 62.08C223.025 62.08 221.765 61.7 220.925 60.94C220.085 60.14 219.665 59.04 219.665 57.64C219.665 56.24 220.205 55.08 221.285 54.16C222.405 53.2 223.785 52.72 225.425 52.72C226.905 52.72 228.105 53.08 229.025 53.8C229.945 54.52 230.405 55.54 230.405 56.86C230.405 58.46 229.885 59.74 228.845 60.7C227.805 61.62 226.425 62.08 224.705 62.08ZM224.225 94.3C221.625 94.3 219.725 93.38 218.525 91.54C217.365 89.7 216.785 87.26 216.785 84.22C216.785 82.42 217.005 80.12 217.445 77.32C217.925 74.48 218.525 71.84 219.245 69.4C219.605 68.12 220.085 67.24 220.685 66.76C221.285 66.28 222.245 66.04 223.565 66.04C225.605 66.04 226.625 66.72 226.625 68.08C226.625 69.08 226.245 71.4 225.485 75.04C224.525 79.44 224.045 82.42 224.045 83.98C224.045 85.18 224.205 86.1 224.525 86.74C224.845 87.38 225.385 87.7 226.145 87.7C226.865 87.7 227.765 87.2 228.845 86.2C229.925 85.2 231.365 83.62 233.165 81.46C233.645 80.9 234.185 80.62 234.785 80.62C235.305 80.62 235.705 80.86 235.985 81.34C236.305 81.82 236.465 82.48 236.465 83.32C236.465 84.92 236.085 86.16 235.325 87.04C231.365 91.88 227.665 94.3 224.225 94.3ZM254.965 77.2C256.085 77.2 256.645 78.04 256.645 79.72C256.645 82.88 254.165 84.46 249.205 84.46C248.245 84.46 246.865 84.28 245.065 83.92C245.585 86.4 246.005 89.16 246.325 92.2C246.685 95.2 246.865 97.68 246.865 99.64C246.865 103.96 246.165 107.26 244.765 109.54C243.365 111.82 241.525 112.96 239.245 112.96C236.365 112.96 234.305 110.92 233.065 106.84C231.865 102.76 231.265 96.6 231.265 88.36C231.265 80.68 232.085 72.9 233.725 65.02C235.405 57.1 237.685 50.56 240.565 45.4C243.485 40.2 246.685 37.6 250.165 37.6C252.045 37.6 253.505 38.44 254.545 40.12C255.625 41.8 256.165 44.06 256.165 46.9C256.165 56.3 250.545 66.54 239.305 77.62C238.905 81.54 238.705 84.98 238.705 87.94C238.705 92.06 238.845 96.28 239.125 100.6C239.405 104.96 239.865 107.14 240.505 107.14C241.705 107.14 242.305 105.06 242.305 100.9C242.305 97.78 242.085 94.76 241.645 91.84C241.245 88.92 240.685 85.84 239.965 82.6C239.925 82.08 240.085 81.42 240.445 80.62C240.845 79.82 241.325 79.12 241.885 78.52C242.445 77.92 242.945 77.62 243.385 77.62C244.185 77.62 245.145 77.66 246.265 77.74C246.625 77.78 247.045 77.8 247.525 77.8C249.125 77.8 250.905 77.66 252.865 77.38C253.185 77.34 253.525 77.3 253.885 77.26C254.245 77.22 254.605 77.2 254.965 77.2ZM248.905 43.54C248.185 43.54 247.285 44.76 246.205 47.2C245.165 49.64 244.125 52.88 243.085 56.92C242.045 60.92 241.145 65.16 240.385 69.64C243.585 66 246.045 62.22 247.765 58.3C249.485 54.34 250.365 50.64 250.405 47.2C250.405 44.76 249.905 43.54 248.905 43.54ZM273.118 66.04C274.038 66.04 274.678 66.16 275.038 66.4C275.398 66.64 275.578 67.04 275.578 67.6C275.578 68.56 275.058 71.98 274.018 77.86C273.098 83.5 272.558 86.84 272.398 87.88C270.918 98.16 268.878 106.3 266.278 112.3C263.678 118.3 260.218 121.3 255.898 121.3C253.858 121.3 252.198 120.66 250.918 119.38C249.638 118.14 248.998 116.5 248.998 114.46C248.998 112.58 249.418 110.66 250.258 108.7C251.138 106.74 252.738 104.48 255.058 101.92C257.418 99.4 260.738 96.5 265.018 93.22L265.198 91.84C265.478 90.36 265.798 88.24 266.158 85.48C265.358 88.36 264.238 90.56 262.798 92.08C261.358 93.56 259.838 94.3 258.238 94.3C256.438 94.3 254.958 93.48 253.798 91.84C252.678 90.16 252.118 88.08 252.118 85.6C252.118 82.6 252.318 79.86 252.718 77.38C253.118 74.86 253.778 72.2 254.698 69.4C255.098 68.2 255.658 67.34 256.378 66.82C257.098 66.3 258.238 66.04 259.798 66.04C260.678 66.04 261.278 66.18 261.598 66.46C261.958 66.74 262.138 67.16 262.138 67.72C262.138 68.04 261.918 69.12 261.478 70.96C261.078 72.44 260.758 73.78 260.518 74.98C260.198 76.62 259.918 78.2 259.678 79.72C259.438 81.2 259.318 82.42 259.318 83.38C259.318 84.9 259.738 85.66 260.578 85.66C261.178 85.66 261.918 85.06 262.798 83.86C263.718 82.66 264.678 80.84 265.678 78.4C266.718 75.96 267.718 72.96 268.678 69.4C268.998 68.2 269.478 67.34 270.118 66.82C270.798 66.3 271.798 66.04 273.118 66.04ZM256.558 115.48C257.558 115.48 258.678 114.32 259.918 112C261.158 109.68 262.398 105.82 263.638 100.42C260.558 103.02 258.318 105.38 256.918 107.5C255.558 109.66 254.878 111.54 254.878 113.14C254.878 113.82 254.998 114.38 255.238 114.82C255.518 115.26 255.958 115.48 256.558 115.48Z" fill="white"/>
<path d="M394.391 116.43L443.53 31.2L452.152 16.24L394.391 116.43ZM381.387 139L381.377 139.01L373.312 153" fill="black"/>
<path d="M483.906 69.5C483.906 102.866 449.677 131 405.953 131C362.229 131 328 102.866 328 69.5C328 36.1345 362.229 8 405.953 8C449.677 8 483.906 36.1345 483.906 69.5Z" fill="black" stroke="white" stroke-width="6"/>
<path d="M443.635 34L443.542 114.38L435.632 114.37L435.694 62.12L405.376 114.33L397.188 114.32L443.635 34V34Z" fill="white"/>
<rect width="5.14365" height="180.356" transform="matrix(0.87833 0.478054 -0.500957 0.865472 455.569 -6)" fill="white"/>
</g>
<defs>
<clipPath id="clip0">
<rect width="495" height="139" fill="white"/>
</clipPath>
</defs>
</svg>
